<?xml version="1.0"?>
<svg xmlns="http://www.w3.org/2000/svg" xmlns:xlink="http://www.w3.org/1999/xlink" xmlns:svgjs="http://svgjs.com/svgjs" version="1.1" width="512" height="512" x="0" y="0" viewBox="0 0 29.59 29.59" style="enable-background:new 0 0 512 512" xml:space="preserve" class=""><g>
<g xmlns="http://www.w3.org/2000/svg">
	<path id="_x3C_Compound_Path_x3E__5_" d="M25.373,5.861h-2.667V4.22c0-2.323-1.898-4.22-4.218-4.22h-7.383   C8.786,0,6.884,1.897,6.884,4.22v1.641H4.221C1.896,5.861,0,7.467,0,9.787v15.584c0,2.32,1.896,4.219,4.221,4.219h21.152   c2.32,0,4.217-1.898,4.217-4.219V9.787C29.59,7.467,27.693,5.861,25.373,5.861z M9.146,4.22c0-1.037,0.924-1.96,1.959-1.96h7.383   c1.031,0,1.957,0.924,1.957,1.96v1.641H9.146V4.22z M21.576,20.55h-4.521v4.521h-4.519V20.55h-4.52V14.9h4.521v-4.518h4.519V14.9   h4.521L21.576,20.55L21.576,20.55z" fill="#ffffff" data-original="#000000" style="" class=""/>
	<g>
	</g>
	<g>
	</g>
	<g>
	</g>
	<g>
	</g>
	<g>
	</g>
	<g>
	</g>
	<g>
	</g>
	<g>
	</g>
	<g>
	</g>
	<g>
	</g>
	<g>
	</g>
	<g>
	</g>
	<g>
	</g>
	<g>
	</g>
	<g>
	</g>
</g>
<g xmlns="http://www.w3.org/2000/svg">
</g>
<g xmlns="http://www.w3.org/2000/svg">
</g>
<g xmlns="http://www.w3.org/2000/svg">
</g>
<g xmlns="http://www.w3.org/2000/svg">
</g>
<g xmlns="http://www.w3.org/2000/svg">
</g>
<g xmlns="http://www.w3.org/2000/svg">
</g>
<g xmlns="http://www.w3.org/2000/svg">
</g>
<g xmlns="http://www.w3.org/2000/svg">
</g>
<g xmlns="http://www.w3.org/2000/svg">
</g>
<g xmlns="http://www.w3.org/2000/svg">
</g>
<g xmlns="http://www.w3.org/2000/svg">
</g>
<g xmlns="http://www.w3.org/2000/svg">
</g>
<g xmlns="http://www.w3.org/2000/svg">
</g>
<g xmlns="http://www.w3.org/2000/svg">
</g>
<g xmlns="http://www.w3.org/2000/svg">
</g>
</g></svg>
